<mxfile host="app.diagrams.net" modified="2023-03-23T11:58:45.657Z" agent="5.0 (Windows NT 10.0; Win64; x64) AppleWebKit/537.36 (KHTML, like Gecko) Chrome/111.0.0.0 Safari/537.36" etag="esEeWba-d3VURpJrEyCf" version="21.0.10" type="github">
  <diagram name="第 1 页" id="75bUVRa-2WxDptlN_7ox">
    <mxGraphModel dx="794" dy="516" grid="1" gridSize="10" guides="1" tooltips="1" connect="1" arrows="1" fold="1" page="1" pageScale="1" pageWidth="827" pageHeight="1169" math="0" shadow="0">
      <root>
        <mxCell id="0" />
        <mxCell id="1" parent="0" />
        <mxCell id="AJztc_lYmS9RJWx58ISs-16" style="rounded=0;orthogonalLoop=1;jettySize=auto;html=1;exitX=0;exitY=1;exitDx=0;exitDy=0;fillColor=#dae8fc;strokeColor=#6c8ebf;" edge="1" parent="1" target="AJztc_lYmS9RJWx58ISs-12">
          <mxGeometry relative="1" as="geometry">
            <mxPoint x="360" y="180" as="sourcePoint" />
          </mxGeometry>
        </mxCell>
        <mxCell id="AJztc_lYmS9RJWx58ISs-17" style="rounded=0;orthogonalLoop=1;jettySize=auto;html=1;exitX=1;exitY=1;exitDx=0;exitDy=0;entryX=0.5;entryY=0;entryDx=0;entryDy=0;entryPerimeter=0;fillColor=#dae8fc;strokeColor=#6c8ebf;" edge="1" parent="1">
          <mxGeometry relative="1" as="geometry">
            <mxPoint x="480" y="180" as="sourcePoint" />
            <mxPoint x="515" y="385" as="targetPoint" />
          </mxGeometry>
        </mxCell>
        <mxCell id="AJztc_lYmS9RJWx58ISs-8" value="" style="strokeWidth=2;html=1;shape=mxgraph.flowchart.database;whiteSpace=wrap;" vertex="1" parent="1">
          <mxGeometry x="375.5" y="230" width="90" height="90" as="geometry" />
        </mxCell>
        <mxCell id="AJztc_lYmS9RJWx58ISs-9" value="&lt;br style=&quot;border-color: var(--border-color); font-size: 15px;&quot;&gt;业务数据库" style="text;html=1;strokeColor=none;fillColor=none;align=center;verticalAlign=middle;whiteSpace=wrap;rounded=0;fontSize=15;" vertex="1" parent="1">
          <mxGeometry x="374.5" y="260" width="91" height="30" as="geometry" />
        </mxCell>
        <mxCell id="AJztc_lYmS9RJWx58ISs-12" value="" style="shape=cylinder3;whiteSpace=wrap;html=1;boundedLbl=1;backgroundOutline=1;size=15;" vertex="1" parent="1">
          <mxGeometry x="280" y="380" width="90" height="100" as="geometry" />
        </mxCell>
        <mxCell id="AJztc_lYmS9RJWx58ISs-13" value="搜索服务器" style="text;html=1;strokeColor=none;fillColor=none;align=center;verticalAlign=middle;whiteSpace=wrap;rounded=0;fontSize=15;" vertex="1" parent="1">
          <mxGeometry x="285" y="425" width="80" height="20" as="geometry" />
        </mxCell>
        <mxCell id="AJztc_lYmS9RJWx58ISs-24" value="" style="endArrow=classic;startArrow=classic;html=1;rounded=0;entryX=0;entryY=0.5;entryDx=0;entryDy=0;fillColor=#fff2cc;strokeColor=#d6b656;" edge="1" parent="1">
          <mxGeometry width="50" height="50" relative="1" as="geometry">
            <mxPoint x="470" y="270" as="sourcePoint" />
            <mxPoint x="560" y="320" as="targetPoint" />
          </mxGeometry>
        </mxCell>
        <mxCell id="AJztc_lYmS9RJWx58ISs-25" value="" style="endArrow=classic;startArrow=classic;html=1;rounded=0;fillColor=#fff2cc;strokeColor=#d6b656;exitX=1.013;exitY=0.563;exitDx=0;exitDy=0;exitPerimeter=0;" edge="1" parent="1" source="AJztc_lYmS9RJWx58ISs-61">
          <mxGeometry width="50" height="50" relative="1" as="geometry">
            <mxPoint x="280" y="265" as="sourcePoint" />
            <mxPoint x="370" y="270" as="targetPoint" />
          </mxGeometry>
        </mxCell>
        <mxCell id="AJztc_lYmS9RJWx58ISs-30" style="edgeStyle=orthogonalEdgeStyle;rounded=0;orthogonalLoop=1;jettySize=auto;html=1;exitX=0.5;exitY=1;exitDx=0;exitDy=0;entryX=0.5;entryY=0;entryDx=0;entryDy=0;" edge="1" parent="1">
          <mxGeometry relative="1" as="geometry">
            <mxPoint x="620" y="120" as="sourcePoint" />
            <mxPoint x="620" y="190" as="targetPoint" />
          </mxGeometry>
        </mxCell>
        <mxCell id="AJztc_lYmS9RJWx58ISs-31" style="edgeStyle=orthogonalEdgeStyle;rounded=0;orthogonalLoop=1;jettySize=auto;html=1;exitX=0.5;exitY=1;exitDx=0;exitDy=0;entryX=0.5;entryY=0;entryDx=0;entryDy=0;" edge="1" parent="1" source="AJztc_lYmS9RJWx58ISs-35">
          <mxGeometry relative="1" as="geometry">
            <mxPoint x="620" y="230" as="sourcePoint" />
            <mxPoint x="620" y="300" as="targetPoint" />
          </mxGeometry>
        </mxCell>
        <mxCell id="AJztc_lYmS9RJWx58ISs-33" value="" style="endArrow=classic;startArrow=classic;html=1;rounded=0;entryX=0.5;entryY=1;entryDx=0;entryDy=0;exitX=0.5;exitY=0;exitDx=0;exitDy=0;exitPerimeter=0;fillColor=#dae8fc;strokeColor=#6c8ebf;" edge="1" parent="1" source="AJztc_lYmS9RJWx58ISs-8">
          <mxGeometry width="50" height="50" relative="1" as="geometry">
            <mxPoint x="420" y="220" as="sourcePoint" />
            <mxPoint x="420" y="180" as="targetPoint" />
          </mxGeometry>
        </mxCell>
        <mxCell id="AJztc_lYmS9RJWx58ISs-35" value="" style="strokeWidth=2;html=1;shape=mxgraph.flowchart.direct_data;whiteSpace=wrap;" vertex="1" parent="1">
          <mxGeometry x="550" y="190" width="140" height="60" as="geometry" />
        </mxCell>
        <mxCell id="AJztc_lYmS9RJWx58ISs-41" value="ElasticSearch" style="text;html=1;strokeColor=none;fillColor=none;align=center;verticalAlign=middle;whiteSpace=wrap;rounded=0;" vertex="1" parent="1">
          <mxGeometry x="295" y="440" width="60" height="30" as="geometry" />
        </mxCell>
        <mxCell id="AJztc_lYmS9RJWx58ISs-44" value="" style="shape=cylinder3;whiteSpace=wrap;html=1;boundedLbl=1;backgroundOutline=1;size=15;" vertex="1" parent="1">
          <mxGeometry x="480" y="385" width="90" height="100" as="geometry" />
        </mxCell>
        <mxCell id="AJztc_lYmS9RJWx58ISs-45" value="缓存数据库" style="text;html=1;strokeColor=none;fillColor=none;align=center;verticalAlign=middle;whiteSpace=wrap;rounded=0;fontSize=15;" vertex="1" parent="1">
          <mxGeometry x="485" y="430" width="80" height="20" as="geometry" />
        </mxCell>
        <mxCell id="AJztc_lYmS9RJWx58ISs-46" value="Redis&amp;nbsp;" style="text;html=1;strokeColor=none;fillColor=none;align=center;verticalAlign=middle;whiteSpace=wrap;rounded=0;" vertex="1" parent="1">
          <mxGeometry x="495" y="445" width="60" height="30" as="geometry" />
        </mxCell>
        <mxCell id="AJztc_lYmS9RJWx58ISs-47" value="MongoDB" style="text;html=1;strokeColor=none;fillColor=none;align=center;verticalAlign=middle;whiteSpace=wrap;rounded=0;" vertex="1" parent="1">
          <mxGeometry x="390" y="290" width="60" height="30" as="geometry" />
        </mxCell>
        <mxCell id="AJztc_lYmS9RJWx58ISs-48" value="" style="verticalLabelPosition=bottom;verticalAlign=top;html=1;shape=mxgraph.basic.layered_rect;dx=10;outlineConnect=0;whiteSpace=wrap;" vertex="1" parent="1">
          <mxGeometry x="560" y="60" width="120" height="60" as="geometry" />
        </mxCell>
        <mxCell id="AJztc_lYmS9RJWx58ISs-49" value="信息采集服务" style="text;html=1;strokeColor=none;fillColor=none;align=center;verticalAlign=middle;whiteSpace=wrap;rounded=0;fontSize=15;" vertex="1" parent="1">
          <mxGeometry x="570" y="70" width="95" height="20" as="geometry" />
        </mxCell>
        <mxCell id="AJztc_lYmS9RJWx58ISs-50" value="Flume" style="text;html=1;strokeColor=none;fillColor=none;align=center;verticalAlign=middle;whiteSpace=wrap;rounded=0;" vertex="1" parent="1">
          <mxGeometry x="580" y="80" width="60" height="30" as="geometry" />
        </mxCell>
        <mxCell id="AJztc_lYmS9RJWx58ISs-51" value="消息缓冲服务" style="text;html=1;strokeColor=none;fillColor=none;align=center;verticalAlign=middle;whiteSpace=wrap;rounded=0;fontSize=15;" vertex="1" parent="1">
          <mxGeometry x="560" y="200" width="100" height="20" as="geometry" />
        </mxCell>
        <mxCell id="AJztc_lYmS9RJWx58ISs-52" value="Kafka" style="text;html=1;strokeColor=none;fillColor=none;align=center;verticalAlign=middle;whiteSpace=wrap;rounded=0;" vertex="1" parent="1">
          <mxGeometry x="580" y="220" width="60" height="30" as="geometry" />
        </mxCell>
        <mxCell id="AJztc_lYmS9RJWx58ISs-55" value="" style="shape=tape;whiteSpace=wrap;html=1;strokeWidth=2;size=0.19" vertex="1" parent="1">
          <mxGeometry x="365" y="5" width="119.5" height="75" as="geometry" />
        </mxCell>
        <mxCell id="AJztc_lYmS9RJWx58ISs-56" value="用户可视化" style="text;html=1;strokeColor=none;fillColor=none;align=center;verticalAlign=middle;whiteSpace=wrap;rounded=0;fontSize=15;" vertex="1" parent="1">
          <mxGeometry x="382.25" y="30" width="80" height="20" as="geometry" />
        </mxCell>
        <mxCell id="AJztc_lYmS9RJWx58ISs-75" style="edgeStyle=orthogonalEdgeStyle;rounded=0;orthogonalLoop=1;jettySize=auto;html=1;exitX=0.5;exitY=1;exitDx=0;exitDy=0;entryX=0.5;entryY=0;entryDx=0;entryDy=0;fillColor=#dae8fc;strokeColor=#6c8ebf;" edge="1" parent="1" source="AJztc_lYmS9RJWx58ISs-57" target="AJztc_lYmS9RJWx58ISs-68">
          <mxGeometry relative="1" as="geometry" />
        </mxCell>
        <mxCell id="AJztc_lYmS9RJWx58ISs-57" value="HTML，CSS" style="text;html=1;strokeColor=none;fillColor=none;align=center;verticalAlign=middle;whiteSpace=wrap;rounded=0;" vertex="1" parent="1">
          <mxGeometry x="380.5" y="40" width="85" height="30" as="geometry" />
        </mxCell>
        <mxCell id="AJztc_lYmS9RJWx58ISs-61" value="" style="labelPosition=center;verticalLabelPosition=middle;align=center;html=1;shape=mxgraph.basic.button;dx=10;whiteSpace=wrap;" vertex="1" parent="1">
          <mxGeometry x="160" y="280" width="120" height="80" as="geometry" />
        </mxCell>
        <mxCell id="AJztc_lYmS9RJWx58ISs-62" value="" style="labelPosition=center;verticalLabelPosition=middle;align=center;html=1;shape=mxgraph.basic.button;dx=10;whiteSpace=wrap;" vertex="1" parent="1">
          <mxGeometry x="560" y="300" width="130" height="70" as="geometry" />
        </mxCell>
        <mxCell id="AJztc_lYmS9RJWx58ISs-63" value="离线推荐服务" style="text;html=1;strokeColor=none;fillColor=none;align=center;verticalAlign=middle;whiteSpace=wrap;rounded=0;fontSize=15;" vertex="1" parent="1">
          <mxGeometry x="172.5" y="300" width="95" height="20" as="geometry" />
        </mxCell>
        <mxCell id="AJztc_lYmS9RJWx58ISs-64" value="实时推荐服务" style="text;html=1;strokeColor=none;fillColor=none;align=center;verticalAlign=middle;whiteSpace=wrap;rounded=0;fontSize=15;" vertex="1" parent="1">
          <mxGeometry x="577.5" y="320" width="95" height="20" as="geometry" />
        </mxCell>
        <mxCell id="AJztc_lYmS9RJWx58ISs-65" value="Spark SQL" style="text;html=1;strokeColor=none;fillColor=none;align=center;verticalAlign=middle;whiteSpace=wrap;rounded=0;" vertex="1" parent="1">
          <mxGeometry x="182.5" y="320" width="75" height="30" as="geometry" />
        </mxCell>
        <mxCell id="AJztc_lYmS9RJWx58ISs-66" value="Spark Stream" style="text;html=1;strokeColor=none;fillColor=none;align=center;verticalAlign=middle;whiteSpace=wrap;rounded=0;" vertex="1" parent="1">
          <mxGeometry x="582.5" y="330" width="85" height="30" as="geometry" />
        </mxCell>
        <mxCell id="AJztc_lYmS9RJWx58ISs-69" value="" style="endArrow=classic;startArrow=classic;html=1;rounded=0;exitX=0.5;exitY=0;exitDx=0;exitDy=0;fillColor=#dae8fc;strokeColor=#6c8ebf;entryX=0.5;entryY=1;entryDx=0;entryDy=0;entryPerimeter=0;" edge="1" parent="1" target="AJztc_lYmS9RJWx58ISs-68">
          <mxGeometry width="50" height="50" relative="1" as="geometry">
            <mxPoint x="420" y="140" as="sourcePoint" />
            <mxPoint x="420" y="80" as="targetPoint" />
          </mxGeometry>
        </mxCell>
        <mxCell id="AJztc_lYmS9RJWx58ISs-74" style="rounded=0;orthogonalLoop=1;jettySize=auto;html=1;exitX=1;exitY=0.5;exitDx=0;exitDy=0;entryX=0;entryY=0;entryDx=0;entryDy=25;entryPerimeter=0;" edge="1" parent="1" source="AJztc_lYmS9RJWx58ISs-68" target="AJztc_lYmS9RJWx58ISs-48">
          <mxGeometry relative="1" as="geometry" />
        </mxCell>
        <mxCell id="AJztc_lYmS9RJWx58ISs-68" value="" style="ellipse;shape=doubleEllipse;whiteSpace=wrap;html=1;" vertex="1" parent="1">
          <mxGeometry x="349.75" y="110" width="145" height="80" as="geometry" />
        </mxCell>
        <mxCell id="AJztc_lYmS9RJWx58ISs-72" value="综合业务服务" style="text;html=1;strokeColor=none;fillColor=none;align=center;verticalAlign=middle;whiteSpace=wrap;rounded=0;fontSize=15;" vertex="1" parent="1">
          <mxGeometry x="375.5" y="130" width="94.5" height="20" as="geometry" />
        </mxCell>
        <mxCell id="AJztc_lYmS9RJWx58ISs-73" value="Spring Boot" style="text;html=1;strokeColor=none;fillColor=none;align=center;verticalAlign=middle;whiteSpace=wrap;rounded=0;" vertex="1" parent="1">
          <mxGeometry x="384" y="150" width="76" height="30" as="geometry" />
        </mxCell>
      </root>
    </mxGraphModel>
  </diagram>
</mxfile>
